<svg width="21" height="17" viewBox="0 0 21 17" fill="none" xmlns="http://www.w3.org/2000/svg">
<path d="M18.5793 14.7578H16.5793V6.00781L10.5793 9.75781L4.57935 6.00781V14.7578H2.57935V2.75781H3.77935L10.5793 7.00781L17.3793 2.75781H18.5793M18.5793 0.757812H2.57935C1.46935 0.757812 0.579346 1.64781 0.579346 2.75781V14.7578C0.579346 15.2882 0.790059 15.797 1.16513 16.172C1.5402 16.5471 2.04891 16.7578 2.57935 16.7578H18.5793C19.1098 16.7578 19.6185 16.5471 19.9936 16.172C20.3686 15.797 20.5793 15.2882 20.5793 14.7578V2.75781C20.5793 2.22738 20.3686 1.71867 19.9936 1.3436C19.6185 0.968526 19.1098 0.757813 18.5793 0.757812Z" fill="white"/>
</svg>
